Nunito-Light.ufo
<glyph name="exclam" format="1">
  <advance width="795"/>
  <unicode hex="0021"/>
  <outline>
    <component base="period" xOffset="130" yOffset="-3"/>
    <contour>
      <point x="376" y="425" type="line" smooth="yes"/>
      <point x="377" y="393"/>
      <point x="396" y="377"/>
      <point x="415" y="377" type="curve" smooth="yes"/>
      <point x="434" y="377"/>
      <point x="453" y="392"/>
      <point x="456" y="425" type="curve"/>
      <point x="500" y="1405" type="line" smooth="yes"/>
      <point x="501" y="1459"/>
      <point x="459" y="1486"/>
      <point x="416" y="1486" type="curve" smooth="yes"/>
      <point x="373" y="1486"/>
      <point x="331" y="1459"/>
      <point x="333" y="1405" type="curve" smooth="yes"/>
    </contour>
  </outline>
</glyph>
<glyph name="dollar" format="1">
  <advance width="1292"/>
  <unicode hex="0024"/>
  <outline>
    <contour>
      <point x="606" y="0" type="line" smooth="yes"/>
      <point x="606" y="-41"/>
      <point x="635" y="-61"/>
      <point x="665" y="-61" type="curve" smooth="yes"/>
      <point x="696" y="-61"/>
      <point x="727" y="-40"/>
      <point x="727" y="0" type="curve" smooth="yes"/>
      <point x="727" y="208.297" type="line"/>
      <point x="912.182" y="226.511"/>
      <point x="1048" y="320.741"/>
      <point x="1048" y="509" type="curve" smooth="yes"/>
      <point x="1048" y="631"/>
      <point x="990" y="732"/>
      <point x="783" y="783" type="curve" smooth="yes"/>
      <point x="600" y="828" type="line"/>
      <point x="441" y="866"/>
      <point x="408" y="885"/>
      <point x="408" y="975" type="curve" smooth="yes"/>
      <point x="408" y="1088"/>
      <point x="510" y="1136"/>
      <point x="669" y="1136" type="curve" smooth="yes"/>
      <point x="791" y="1136"/>
      <point x="890" y="1088"/>
      <point x="937" y="1071" type="curve" smooth="yes"/>
      <point x="947" y="1068"/>
      <point x="956" y="1066"/>
      <point x="964" y="1066" type="curve" smooth="yes"/>
      <point x="995" y="1066"/>
      <point x="1012" y="1089"/>
      <point x="1012" y="1113" type="curve" smooth="yes"/>
      <point x="1012" y="1131"/>
      <point x="1002" y="1150"/>
      <point x="981" y="1162" type="curve" smooth="yes"/>
      <point x="938.057" y="1185.58"/>
      <point x="840.52" y="1223.33"/>
      <point x="726" y="1234.67" type="curve"/>
      <point x="726" y="1438" type="line" smooth="yes"/>
      <point x="726" y="1478"/>
      <point x="694" y="1499"/>
      <point x="663" y="1499" type="curve" smooth="yes"/>
      <point x="633" y="1499"/>
      <point x="604" y="1479"/>
      <point x="604" y="1438" type="curve" smooth="yes"/>
      <point x="604" y="1236.1" type="line"/>
      <point x="430.022" y="1224.01"/>
      <point x="270" y="1152.52"/>
      <point x="270" y="970" type="curve" smooth="yes"/>
      <point x="270" y="794"/>
      <point x="386" y="753"/>
      <point x="560" y="711" type="curve" smooth="yes"/>
      <point x="748" y="666" type="line" smooth="yes"/>
      <point x="876" y="635"/>
      <point x="923" y="587"/>
      <point x="923" y="494" type="curve" smooth="yes"/>
      <point x="923" y="372"/>
      <point x="823" y="308"/>
      <point x="668" y="307" type="curve" smooth="yes"/>
      <point x="550" y="307"/>
      <point x="444" y="345"/>
      <point x="365" y="394" type="curve" smooth="yes"/>
      <point x="350" y="403"/>
      <point x="336" y="407"/>
      <point x="323" y="407" type="curve" smooth="yes"/>
      <point x="293" y="407"/>
      <point x="272" y="384"/>
      <point x="272" y="358" type="curve" smooth="yes"/>
      <point x="272" y="342"/>
      <point x="280" y="325"/>
      <point x="299" y="311" type="curve" smooth="yes"/>
      <point x="358.405" y="267.32"/>
      <point x="479.63" y="219.06"/>
      <point x="606" y="207.559" type="curve"/>
    </contour>
  </outline>
</glyph>
<glyph name="ampersand" format="1">
  <advance width="1507"/>
  <unicode hex="0026"/>
  <outline>
    <contour>
      <point x="973" y="1242" type="curve" smooth="yes"/>
      <point x="973" y="1429"/>
      <point x="865" y="1510"/>
      <point x="651" y="1510" type="curve" smooth="yes"/>
      <point x="446" y="1510"/>
      <point x="278" y="1421"/>
      <point x="278" y="1235" type="curve" smooth="yes"/>
      <point x="278" y="1091"/>
      <point x="384" y="970"/>
      <point x="479" y="866" type="curve"/>
      <point x="295" y="767"/>
      <point x="108" y="634"/>
      <point x="108" y="407" type="curve" smooth="yes"/>
      <point x="108" y="132"/>
      <point x="327" y="-29"/>
      <point x="659" y="-29" type="curve" smooth="yes"/>
      <point x="848" y="-29"/>
      <point x="992" y="48"/>
      <point x="1115" y="189" type="curve"/>
      <point x="1264" y="24" type="line"/>
      <point x="1282" y="2"/>
      <point x="1303" y="-7"/>
      <point x="1323" y="-7" type="curve" smooth="yes"/>
      <point x="1365" y="-7"/>
      <point x="1405" y="33"/>
      <point x="1405" y="77" type="curve" smooth="yes"/>
      <point x="1405" y="97"/>
      <point x="1396" y="109"/>
      <point x="1379" y="130" type="curve"/>
      <point x="1218" y="305" type="line"/>
      <point x="1342" y="514"/>
      <point x="1383" y="748"/>
      <point x="1383" y="849" type="curve" smooth="yes"/>
      <point x="1383" y="898"/>
      <point x="1347" y="924"/>
      <point x="1308" y="924" type="curve" smooth="yes"/>
      <point x="1273" y="924"/>
      <point x="1241" y="902"/>
      <point x="1238" y="857" type="curve" smooth="yes"/>
      <point x="1236" y="708"/>
      <point x="1177" y="539"/>
      <point x="1117" y="407" type="curve"/>
      <point x="698" y="852" type="line"/>
      <point x="833" y="954"/>
      <point x="973" y="1069"/>
    </contour>
    <contour>
      <point x="647" y="101" type="curve" smooth="yes"/>
      <point x="453" y="101"/>
      <point x="274" y="224"/>
      <point x="274" y="432" type="curve" smooth="yes"/>
      <point x="274" y="554"/>
      <point x="396" y="671"/>
      <point x="576" y="767" type="curve"/>
      <point x="1028" y="284" type="line"/>
      <point x="914" y="169"/>
      <point x="805" y="101"/>
    </contour>
    <contour>
      <point x="603" y="945" type="curve"/>
      <point x="533" y="1019"/>
      <point x="445" y="1131"/>
      <point x="445" y="1232" type="curve" smooth="yes"/>
      <point x="445" y="1336"/>
      <point x="534" y="1376"/>
      <point x="628" y="1376" type="curve" smooth="yes"/>
      <point x="717" y="1376"/>
      <point x="806" y="1330"/>
      <point x="806" y="1232" type="curve" smooth="yes"/>
      <point x="806" y="1109"/>
      <point x="689" y="1025"/>
    </contour>
  </outline>
</glyph>
<glyph name="semicolon" format="1">
  <advance width="578"/>
  <unicode hex="003B"/>
  <outline>
    <component base="comma" xOffset="5" yOffset="120"/>
    <contour>
      <point x="313" y="833" type="curve" smooth="yes"/>
      <point x="379" y="833"/>
      <point x="416" y="879"/>
      <point x="416" y="926" type="curve" smooth="yes"/>
      <point x="416" y="971"/>
      <point x="380" y="1016"/>
      <point x="313" y="1016" type="curve" smooth="yes"/>
      <point x="247" y="1016"/>
      <point x="212" y="972"/>
      <point x="212" y="926" type="curve" smooth="yes"/>
      <point x="212" y="879"/>
      <point x="246" y="833"/>
    </contour>
  </outline>
</glyph>
<glyph name="equal" format="1">
  <advance width="1345"/>
  <unicode hex="003D"/>
  <outline>
    <contour>
      <point x="227" y="237" type="curve" smooth="yes"/>
      <point x="1122" y="237" type="line" smooth="yes"/>
      <point x="1158" y="237"/>
      <point x="1184" y="268"/>
      <point x="1184" y="300" type="curve" smooth="yes"/>
      <point x="1184" y="336"/>
      <point x="1158" y="365"/>
      <point x="1120" y="365" type="curve" smooth="yes"/>
      <point x="223" y="365" type="line" smooth="yes"/>
      <point x="187" y="365"/>
      <point x="160" y="336"/>
      <point x="160" y="300" type="curve" smooth="yes"/>
      <point x="160" y="267"/>
      <point x="189" y="237"/>
    </contour>
    <contour>
      <point x="227" y="625" type="curve" smooth="yes"/>
      <point x="1122" y="625" type="line" smooth="yes"/>
      <point x="1158" y="625"/>
      <point x="1184" y="656"/>
      <point x="1184" y="689" type="curve" smooth="yes"/>
      <point x="1184" y="724"/>
      <point x="1158" y="754"/>
      <point x="1122" y="754" type="curve" smooth="yes"/>
      <point x="223" y="754" type="line" smooth="yes"/>
      <point x="187" y="754"/>
      <point x="160" y="724"/>
      <point x="160" y="689" type="curve" smooth="yes"/>
      <point x="160" y="655"/>
      <point x="189" y="625"/>
    </contour>
  </outline>
</glyph>
<glyph name="greater" format="1">
  <advance width="1345"/>
  <unicode hex="003E"/>
  <outline>
    <contour>
      <point x="235" y="33" type="curve" smooth="yes"/>
      <point x="1135" y="435" type="line" smooth="yes"/>
      <point x="1163" y="447"/>
      <point x="1178" y="471"/>
      <point x="1178" y="495" type="curve" smooth="yes"/>
      <point x="1178" y="517"/>
      <point x="1165" y="538"/>
      <point x="1137" y="550" type="curve" smooth="yes"/>
      <point x="239" y="934" type="line" smooth="yes"/>
      <point x="232" y="937"/>
      <point x="225" y="938"/>
      <point x="219" y="938" type="curve" smooth="yes"/>
      <point x="189" y="938"/>
      <point x="163" y="908"/>
      <point x="163" y="880" type="curve" smooth="yes"/>
      <point x="163" y="864"/>
      <point x="171" y="848"/>
      <point x="193" y="839" type="curve" smooth="yes"/>
      <point x="1008" y="494" type="line"/>
      <point x="190" y="129" type="line" smooth="yes"/>
      <point x="174" y="122"/>
      <point x="168" y="107"/>
      <point x="168" y="90" type="curve" smooth="yes"/>
      <point x="168" y="61"/>
      <point x="187" y="29"/>
      <point x="216" y="29" type="curve" smooth="yes"/>
      <point x="222" y="29"/>
      <point x="229" y="30"/>
    </contour>
  </outline>
</glyph>
<glyph name="Y" format="1">
  <advance width="1274"/>
  <unicode hex="0059"/>
  <outline>
    <contour>
      <point x="559" y="77" type="line" smooth="yes"/>
      <point x="559" y="27"/>
      <point x="600" y="1"/>
      <point x="640" y="1" type="curve" smooth="yes"/>
      <point x="680" y="1"/>
      <point x="721" y="27"/>
      <point x="721" y="77" type="curve" smooth="yes"/>
      <point x="721" y="610" type="line"/>
      <point x="1188" y="1316" type="line" smooth="yes"/>
      <point x="1197" y="1329"/>
      <point x="1201" y="1343"/>
      <point x="1201" y="1356" type="curve" smooth="yes"/>
      <point x="1201" y="1393"/>
      <point x="1169" y="1422"/>
      <point x="1134" y="1422" type="curve" smooth="yes"/>
      <point x="1112" y="1422"/>
      <point x="1088" y="1410"/>
      <point x="1070" y="1382" type="curve" smooth="yes"/>
      <point x="649" y="734" type="line"/>
      <point x="225" y="1386" type="line" smooth="yes"/>
      <point x="208" y="1411"/>
      <point x="184" y="1422"/>
      <point x="160" y="1422" type="curve" smooth="yes"/>
      <point x="119" y="1422"/>
      <point x="78" y="1391"/>
      <point x="78" y="1350" type="curve" smooth="yes"/>
      <point x="78" y="1337"/>
      <point x="82" y="1322"/>
      <point x="92" y="1308" type="curve" smooth="yes"/>
      <point x="559" y="606" type="line"/>
    </contour>
  </outline>
</glyph>
<glyph name="t" format="1">
  <advance width="718"/>
  <unicode hex="0074"/>
  <outline>
    <contour>
      <point x="462" y="-19" type="curve" smooth="yes"/>
      <point x="483" y="-19"/>
      <point x="503" y="-20"/>
      <point x="523" y="-20" type="curve" smooth="yes"/>
      <point x="592" y="-20"/>
      <point x="649" y="-14"/>
      <point x="649" y="42" type="curve" smooth="yes"/>
      <point x="649" y="71"/>
      <point x="628" y="100"/>
      <point x="587" y="100" type="curve" smooth="yes"/>
      <point x="584" y="100" type="line"/>
      <point x="521" y="97" type="line"/>
      <point x="512" y="97" type="line" smooth="yes"/>
      <point x="425" y="97"/>
      <point x="377" y="140"/>
      <point x="377" y="300" type="curve" smooth="yes"/>
      <point x="377" y="882" type="line"/>
      <point x="569" y="882" type="line" smooth="yes"/>
      <point x="610" y="882"/>
      <point x="625" y="900"/>
      <point x="625" y="929" type="curve" smooth="yes"/>
      <point x="625" y="959"/>
      <point x="610" y="979"/>
      <point x="569" y="979" type="curve" smooth="yes"/>
      <point x="377" y="979" type="line"/>
      <point x="377" y="1276" type="line" smooth="yes"/>
      <point x="377" y="1317"/>
      <point x="347" y="1338"/>
      <point x="317" y="1338" type="curve" smooth="yes"/>
      <point x="291" y="1338"/>
      <point x="249" y="1306"/>
      <point x="248" y="1275" type="curve" smooth="yes"/>
      <point x="231" y="979" type="line"/>
      <point x="99" y="979" type="line" smooth="yes"/>
      <point x="58" y="979"/>
      <point x="41" y="959"/>
      <point x="41" y="930" type="curve" smooth="yes"/>
      <point x="41" y="901"/>
      <point x="58" y="882"/>
      <point x="99" y="882" type="curve" smooth="yes"/>
      <point x="231" y="882" type="line"/>
      <point x="231" y="288" type="line" smooth="yes"/>
      <point x="231" y="51"/>
      <point x="336" y="-19"/>
    </contour>
  </outline>
</glyph>
<glyph name="z" format="1">
  <advance width="925"/>
  <unicode hex="007A"/>
  <outline>
    <contour>
      <point x="168" y="0" type="curve" smooth="yes"/>
      <point x="759" y="0" type="line" smooth="yes"/>
      <point x="802" y="0"/>
      <point x="824" y="30"/>
      <point x="824" y="60" type="curve" smooth="yes"/>
      <point x="824" y="88"/>
      <point x="802" y="118"/>
      <point x="759" y="118" type="curve" smooth="yes"/>
      <point x="255" y="118" type="line"/>
      <point x="807" y="854" type="line" smooth="yes"/>
      <point x="823" y="877"/>
      <point x="831" y="897"/>
      <point x="831" y="917" type="curve" smooth="yes"/>
      <point x="831" y="959"/>
      <point x="799" y="989"/>
      <point x="742" y="989" type="curve" smooth="yes"/>
      <point x="157" y="989" type="line" smooth="yes"/>
      <point x="117" y="989"/>
      <point x="96" y="959"/>
      <point x="96" y="930" type="curve" smooth="yes"/>
      <point x="96" y="901"/>
      <point x="116" y="874"/>
      <point x="157" y="874" type="curve" smooth="yes"/>
      <point x="657" y="874" type="line"/>
      <point x="107" y="135" type="line" smooth="yes"/>
      <point x="91" y="114"/>
      <point x="84" y="93"/>
      <point x="84" y="74" type="curve" smooth="yes"/>
      <point x="84" y="32"/>
      <point x="115" y="0"/>
    </contour>
  </outline>
</glyph>
<glyph name="sterling" format="1">
  <advance width="1358"/>
  <unicode hex="00A3"/>
  <outline>
    <contour>
      <point x="226" y="-1" type="curve" smooth="yes"/>
      <point x="1071" y="-1" type="line" smooth="yes"/>
      <point x="1093" y="-1"/>
      <point x="1104" y="29"/>
      <point x="1104" y="60" type="curve" smooth="yes"/>
      <point x="1104" y="91"/>
      <point x="1093" y="122"/>
      <point x="1071" y="122" type="curve" smooth="yes"/>
      <point x="484" y="122" type="line"/>
      <point x="484" y="768" type="line"/>
      <point x="869" y="768" type="line" smooth="yes"/>
      <point x="888" y="768"/>
      <point x="898" y="796"/>
      <point x="898" y="824" type="curve" smooth="yes"/>
      <point x="898" y="851"/>
      <point x="889" y="877"/>
      <point x="869" y="877" type="curve" smooth="yes"/>
      <point x="484" y="877" type="line"/>
      <point x="484" y="1007" type="line" smooth="yes"/>
      <point x="484" y="1240"/>
      <point x="512" y="1319"/>
      <point x="730" y="1319" type="curve" smooth="yes"/>
      <point x="818" y="1319"/>
      <point x="877" y="1305"/>
      <point x="952" y="1293" type="curve"/>
      <point x="955" y="1293" type="line" smooth="yes"/>
      <point x="981" y="1293"/>
      <point x="995" y="1337"/>
      <point x="995" y="1368" type="curve" smooth="yes"/>
      <point x="995" y="1384"/>
      <point x="992" y="1396"/>
      <point x="984" y="1398" type="curve" smooth="yes"/>
      <point x="891" y="1423"/>
      <point x="792" y="1435"/>
      <point x="709" y="1435" type="curve" smooth="yes"/>
      <point x="498" y="1435"/>
      <point x="337" y="1351"/>
      <point x="337" y="1095" type="curve" smooth="yes"/>
      <point x="337" y="877" type="line"/>
      <point x="193" y="877" type="line" smooth="yes"/>
      <point x="173" y="877"/>
      <point x="163" y="849"/>
      <point x="163" y="822" type="curve" smooth="yes"/>
      <point x="163" y="795"/>
      <point x="173" y="768"/>
      <point x="193" y="768" type="curve" smooth="yes"/>
      <point x="337" y="768" type="line"/>
      <point x="337" y="122" type="line"/>
      <point x="223" y="122" type="line" smooth="yes"/>
      <point x="202" y="122"/>
      <point x="191" y="93"/>
      <point x="191" y="63" type="curve" smooth="yes"/>
      <point x="191" y="32"/>
      <point x="203" y="-1"/>
    </contour>
  </outline>
</glyph>
<glyph name="acute" format="1">
  <advance width="569"/>
  <unicode hex="00B4"/>
  <outline>
    <contour>
      <point x="87" y="1203" type="curve" smooth="yes"/>
      <point x="99" y="1203"/>
      <point x="111" y="1209"/>
      <point x="126" y="1220" type="curve" smooth="yes"/>
      <point x="451" y="1467" type="line"/>
      <point x="466" y="1477"/>
      <point x="471" y="1493"/>
      <point x="471" y="1508" type="curve" smooth="yes"/>
      <point x="471" y="1549"/>
      <point x="428" y="1591"/>
      <point x="385" y="1591" type="curve" smooth="yes"/>
      <point x="368" y="1591"/>
      <point x="353" y="1586"/>
      <point x="339" y="1571" type="curve" smooth="yes"/>
      <point x="64" y="1269" type="line" smooth="yes"/>
      <point x="54" y="1258"/>
      <point x="53" y="1247"/>
      <point x="53" y="1239" type="curve" smooth="yes"/>
      <point x="53" y="1220"/>
      <point x="65" y="1203"/>
    </contour>
  </outline>
</glyph>
<glyph name="onequarter" format="1">
  <advance width="1527"/>
  <unicode hex="00BC"/>
  <outline>
    <contour>
      <point x="1271" y="1" type="curve" smooth="yes"/>
      <point x="1294" y="1"/>
      <point x="1316" y="16"/>
      <point x="1316" y="46" type="curve" smooth="yes"/>
      <point x="1316" y="191" type="line"/>
      <point x="1413" y="191" type="line" smooth="yes"/>
      <point x="1438" y="191"/>
      <point x="1450" y="207"/>
      <point x="1450" y="225" type="curve" smooth="yes"/>
      <point x="1450" y="244"/>
      <point x="1436" y="260"/>
      <point x="1413" y="260" type="curve" smooth="yes"/>
      <point x="1316" y="260" type="line"/>
      <point x="1316" y="772" type="line" smooth="yes"/>
      <point x="1316" y="820"/>
      <point x="1286" y="840"/>
      <point x="1250" y="840" type="curve" smooth="yes"/>
      <point x="1222" y="840"/>
      <point x="1194" y="827"/>
      <point x="1175" y="797" type="curve" smooth="yes"/>
      <point x="833" y="280" type="line" smooth="yes"/>
      <point x="825" y="269"/>
      <point x="821" y="258"/>
      <point x="821" y="244" type="curve" smooth="yes"/>
      <point x="821" y="216"/>
      <point x="842" y="191"/>
      <point x="876" y="191" type="curve" smooth="yes"/>
      <point x="1226" y="191" type="line"/>
      <point x="1226" y="46" type="line" smooth="yes"/>
      <point x="1226" y="16"/>
      <point x="1248" y="1"/>
    </contour>
    <contour>
      <point x="391" y="562" type="curve" smooth="yes"/>
      <point x="415" y="562"/>
      <point x="438" y="577"/>
      <point x="438" y="606" type="curve" smooth="yes"/>
      <point x="438" y="1330" type="line" smooth="yes"/>
      <point x="438" y="1363"/>
      <point x="416" y="1376"/>
      <point x="395" y="1376" type="curve" smooth="yes"/>
      <point x="386" y="1376"/>
      <point x="377" y="1373"/>
      <point x="369" y="1369" type="curve" smooth="yes"/>
      <point x="171" y="1243" type="line" smooth="yes"/>
      <point x="161" y="1236"/>
      <point x="156" y="1227"/>
      <point x="156" y="1215" type="curve" smooth="yes"/>
      <point x="156" y="1197"/>
      <point x="170" y="1178"/>
      <point x="192" y="1178" type="curve" smooth="yes"/>
      <point x="199" y="1178"/>
      <point x="205" y="1180"/>
      <point x="212" y="1185" type="curve" smooth="yes"/>
      <point x="347" y="1272" type="line"/>
      <point x="347" y="606" type="line" smooth="yes"/>
      <point x="347" y="577"/>
      <point x="369" y="562"/>
    </contour>
    <contour>
      <point x="501" y="-90" type="curve" smooth="yes"/>
      <point x="523" y="-90"/>
      <point x="543" y="-78"/>
      <point x="551" y="-52" type="curve" smooth="yes"/>
      <point x="1031" y="1359" type="line" smooth="yes"/>
      <point x="1034" y="1367"/>
      <point x="1035" y="1373"/>
      <point x="1035" y="1380" type="curve" smooth="yes"/>
      <point x="1035" y="1411"/>
      <point x="1008" y="1430"/>
      <point x="981" y="1430" type="curve" smooth="yes"/>
      <point x="959" y="1430"/>
      <point x="937" y="1417"/>
      <point x="929" y="1391" type="curve" smooth="yes"/>
      <point x="452" y="-19" type="line" smooth="yes"/>
      <point x="449" y="-26"/>
      <point x="449" y="-33"/>
      <point x="449" y="-40" type="curve" smooth="yes"/>
      <point x="449" y="-71"/>
      <point x="475" y="-90"/>
    </contour>
    <contour>
      <point x="905" y="260" type="line"/>
      <point x="1226" y="750" type="line"/>
      <point x="1226" y="260" type="line"/>
    </contour>
  </outline>
</glyph>
<glyph name="AE" format="1">
  <advance width="1961"/>
  <unicode hex="00C6"/>
  <outline>
    <contour>
      <point x="1250" y="0" type="curve" smooth="yes"/>
      <point x="1855" y="0" type="line"/>
      <point x="1857" y="-0" type="line" smooth="yes"/>
      <point x="1897" y="0"/>
      <point x="1915" y="29"/>
      <point x="1915" y="58" type="curve" smooth="yes"/>
      <point x="1915" y="95"/>
      <point x="1886" y="135"/>
      <point x="1836" y="135" type="curve" smooth="yes"/>
      <point x="1312" y="135" type="line"/>
      <point x="1224" y="667" type="line"/>
      <point x="1803" y="667" type="line" smooth="yes"/>
      <point x="1845" y="667"/>
      <point x="1865" y="694"/>
      <point x="1865" y="724" type="curve" smooth="yes"/>
      <point x="1865" y="762"/>
      <point x="1836" y="801"/>
      <point x="1786" y="801" type="curve" smooth="yes"/>
      <point x="1204" y="801" type="line"/>
      <point x="1126" y="1288" type="line"/>
      <point x="1835" y="1288" type="line" smooth="yes"/>
      <point x="1876" y="1288"/>
      <point x="1895" y="1316"/>
      <point x="1895" y="1346" type="curve" smooth="yes"/>
      <point x="1895" y="1383"/>
      <point x="1866" y="1424"/>
      <point x="1816" y="1424" type="curve" smooth="yes"/>
      <point x="1000" y="1424" type="line" smooth="yes"/>
      <point x="943" y="1424"/>
      <point x="893" y="1409"/>
      <point x="821" y="1286" type="curve"/>
      <point x="65" y="99" type="line" smooth="yes"/>
      <point x="56" y="84"/>
      <point x="51" y="71"/>
      <point x="51" y="60" type="curve" smooth="yes"/>
      <point x="51" y="23"/>
      <point x="81" y="-1"/>
      <point x="119" y="-1" type="curve" smooth="yes"/>
      <point x="147" y="-1"/>
      <point x="177" y="12"/>
      <point x="196" y="47" type="curve"/>
      <point x="408" y="377" type="line"/>
      <point x="1110" y="377" type="line"/>
      <point x="1167" y="47" type="line" smooth="yes"/>
      <point x="1174" y="7"/>
      <point x="1213" y="0"/>
    </contour>
    <contour>
      <point x="486" y="506" type="line"/>
      <point x="965" y="1296" type="line"/>
      <point x="968" y="1296" type="line"/>
      <point x="1094" y="506" type="line"/>
    </contour>
  </outline>
</glyph>
<glyph name="multiply" format="1">
  <advance width="1345"/>
  <unicode hex="00D7"/>
  <outline>
    <contour>
      <point x="359" y="116" type="curve" smooth="yes"/>
      <point x="376" y="116"/>
      <point x="391" y="124"/>
      <point x="403" y="135" type="curve" smooth="yes"/>
      <point x="671" y="403" type="line"/>
      <point x="929" y="147" type="line" smooth="yes"/>
      <point x="941" y="135"/>
      <point x="956" y="128"/>
      <point x="971" y="128" type="curve" smooth="yes"/>
      <point x="1009" y="128"/>
      <point x="1040" y="161"/>
      <point x="1040" y="199" type="curve" smooth="yes"/>
      <point x="1040" y="213"/>
      <point x="1035" y="229"/>
      <point x="1023" y="241" type="curve" smooth="yes"/>
      <point x="765" y="497" type="line"/>
      <point x="1033" y="766" type="line" smooth="yes"/>
      <point x="1047" y="780"/>
      <point x="1053" y="797"/>
      <point x="1053" y="811" type="curve" smooth="yes"/>
      <point x="1053" y="845"/>
      <point x="1022" y="876"/>
      <point x="987" y="876" type="curve" smooth="yes"/>
      <point x="971" y="876"/>
      <point x="956" y="869"/>
      <point x="942" y="856" type="curve" smooth="yes"/>
      <point x="674" y="588" type="line"/>
      <point x="416" y="847" type="line" smooth="yes"/>
      <point x="403" y="859"/>
      <point x="390" y="866"/>
      <point x="373" y="866" type="curve" smooth="yes"/>
      <point x="336" y="866"/>
      <point x="303" y="831"/>
      <point x="303" y="796" type="curve" smooth="yes"/>
      <point x="303" y="779"/>
      <point x="310" y="765"/>
      <point x="322" y="753" type="curve" smooth="yes"/>
      <point x="580" y="494" type="line"/>
      <point x="313" y="226" type="line" smooth="yes"/>
      <point x="298" y="212"/>
      <point x="292" y="195"/>
      <point x="292" y="181" type="curve" smooth="yes"/>
      <point x="292" y="147"/>
      <point x="325" y="116"/>
    </contour>
  </outline>
</glyph>
<glyph name="Lslash" format="1">
  <advance width="1146"/>
  <unicode hex="0141"/>
  <outline>
    <contour>
      <point x="261" y="0" type="curve" smooth="yes"/>
      <point x="1000" y="0" type="line" smooth="yes"/>
      <point x="1046" y="0"/>
      <point x="1069" y="30"/>
      <point x="1069" y="64" type="curve" smooth="yes"/>
      <point x="1069" y="98"/>
      <point x="1048" y="128"/>
      <point x="1000" y="128" type="curve" smooth="yes"/>
      <point x="341" y="128" type="line"/>
      <point x="341" y="748.27" type="line"/>
      <point x="544" y="882" type="line" smooth="yes"/>
      <point x="557.804" y="891.026"/>
      <point x="563.549" y="904.835"/>
      <point x="563.549" y="919.376" type="curve" smooth="yes"/>
      <point x="563.549" y="949.682"/>
      <point x="538.595" y="983.169"/>
      <point x="509.633" y="983.169" type="curve" smooth="yes"/>
      <point x="502.234" y="983.169"/>
      <point x="494.573" y="980.983"/>
      <point x="487" y="976" type="curve" smooth="yes"/>
      <point x="341" y="879.249" type="line"/>
      <point x="341" y="1348" type="line" smooth="yes"/>
      <point x="341" y="1399"/>
      <point x="301" y="1424"/>
      <point x="261" y="1424" type="curve" smooth="yes"/>
      <point x="220" y="1424"/>
      <point x="179" y="1398"/>
      <point x="179" y="1348" type="curve" smooth="yes"/>
      <point x="179" y="771.895" type="line"/>
      <point x="69" y="699" type="line" smooth="yes"/>
      <point x="52.1858" y="687.858"/>
      <point x="45.2219" y="671.51"/>
      <point x="45.2219" y="655.09" type="curve" smooth="yes"/>
      <point x="45.2219" y="625.495"/>
      <point x="67.8462" y="595.666"/>
      <point x="96.193" y="595.666" type="curve" smooth="yes"/>
      <point x="104.449" y="595.666"/>
      <point x="113.191" y="598.197"/>
      <point x="122" y="604" type="curve" smooth="yes"/>
      <point x="179" y="641.55" type="line"/>
      <point x="179" y="79" type="line" smooth="yes"/>
      <point x="179" y="34"/>
      <point x="217" y="0"/>
    </contour>
  </outline>
</glyph>
<glyph name="uni0358" format="1">
  <advance width="600"/>
  <unicode hex="0358"/>
  <outline>
    <contour>
      <point x="322" y="428" type="curve" smooth="yes"/>
      <point x="388" y="428"/>
      <point x="424" y="473"/>
      <point x="424" y="520" type="curve" smooth="yes"/>
      <point x="424" y="566"/>
      <point x="388" y="612"/>
      <point x="322" y="612" type="curve" smooth="yes"/>
      <point x="254" y="612"/>
      <point x="219" y="566"/>
      <point x="219" y="520" type="curve" smooth="yes"/>
      <point x="219" y="473"/>
      <point x="255" y="428"/>
    </contour>
  </outline>
</glyph>
<glyph name="Sigma" format="1">
  <advance width="1368"/>
  <unicode hex="03A3"/>
  <outline>
    <contour>
      <point x="232" y="-94" type="curve" smooth="yes"/>
      <point x="1161" y="-94" type="line" smooth="yes"/>
      <point x="1199" y="-94"/>
      <point x="1218" y="-56"/>
      <point x="1218" y="-19" type="curve" smooth="yes"/>
      <point x="1218" y="19"/>
      <point x="1199" y="56"/>
      <point x="1161" y="56" type="curve" smooth="yes"/>
      <point x="310" y="56" type="line"/>
      <point x="811" y="567" type="line" smooth="yes"/>
      <point x="849" y="606"/>
      <point x="868" y="637"/>
      <point x="868" y="667" type="curve" smooth="yes"/>
      <point x="868" y="698"/>
      <point x="849" y="729"/>
      <point x="811" y="768" type="curve" smooth="yes"/>
      <point x="311" y="1279" type="line"/>
      <point x="1161" y="1280" type="line" smooth="yes"/>
      <point x="1199" y="1280"/>
      <point x="1218" y="1318"/>
      <point x="1218" y="1355" type="curve" smooth="yes"/>
      <point x="1218" y="1392"/>
      <point x="1199" y="1429"/>
      <point x="1161" y="1429" type="curve" smooth="yes"/>
      <point x="250" y="1429" type="line" smooth="yes"/>
      <point x="191" y="1429"/>
      <point x="139" y="1384"/>
      <point x="139" y="1321" type="curve" smooth="yes"/>
      <point x="139" y="1287"/>
      <point x="155" y="1247"/>
      <point x="193" y="1207" type="curve" smooth="yes"/>
      <point x="711" y="672" type="line"/>
      <point x="193" y="118" type="line" smooth="yes"/>
      <point x="154" y="76"/>
      <point x="138" y="35"/>
      <point x="138" y="1" type="curve" smooth="yes"/>
      <point x="138" y="-55"/>
      <point x="181" y="-94"/>
    </contour>
  </outline>
</glyph>
<glyph name="quotedblleft" format="1">
  <advance width="1143"/>
  <unicode hex="201C"/>
  <outline>
    <contour>
      <point x="287" y="1025" type="curve" smooth="yes"/>
      <point x="369" y="1025" type="line"/>
      <point x="401" y="1026"/>
      <point x="434" y="1034"/>
      <point x="442" y="1081" type="curve" smooth="yes"/>
      <point x="495" y="1381" type="line" smooth="yes"/>
      <point x="497" y="1393"/>
      <point x="499" y="1424"/>
      <point x="471" y="1424" type="curve" smooth="yes"/>
      <point x="436" y="1424" type="line" smooth="yes"/>
      <point x="407" y="1424"/>
      <point x="393" y="1413"/>
      <point x="380" y="1381" type="curve" smooth="yes"/>
      <point x="253" y="1081" type="line" smooth="yes"/>
      <point x="251" y="1077"/>
      <point x="250" y="1070"/>
      <point x="250" y="1063" type="curve" smooth="yes"/>
      <point x="250" y="1046"/>
      <point x="258" y="1025"/>
    </contour>
    <contour>
      <point x="644" y="1025" type="curve" smooth="yes"/>
      <point x="725" y="1025" type="line"/>
      <point x="757" y="1026"/>
      <point x="790" y="1034"/>
      <point x="798" y="1081" type="curve" smooth="yes"/>
      <point x="852" y="1381" type="line" smooth="yes"/>
      <point x="853" y="1384"/>
      <point x="853" y="1388"/>
      <point x="853" y="1393" type="curve" smooth="yes"/>
      <point x="853" y="1407"/>
      <point x="849" y="1424"/>
      <point x="828" y="1424" type="curve" smooth="yes"/>
      <point x="793" y="1424" type="line" smooth="yes"/>
      <point x="764" y="1424"/>
      <point x="750" y="1413"/>
      <point x="737" y="1381" type="curve" smooth="yes"/>
      <point x="610" y="1081" type="line" smooth="yes"/>
      <point x="608" y="1077"/>
      <point x="607" y="1070"/>
      <point x="607" y="1063" type="curve" smooth="yes"/>
      <point x="607" y="1046"/>
      <point x="615" y="1025"/>
    </contour>
  </outline>
</glyph>
<glyph name="quotedblright" format="1">
  <advance width="1143"/>
  <unicode hex="201D"/>
  <outline>
    <contour>
      <point x="288" y="1024" type="line"/>
      <point x="323" y="1024" type="line" smooth="yes"/>
      <point x="352" y="1024"/>
      <point x="366" y="1035"/>
      <point x="379" y="1067" type="curve" smooth="yes"/>
      <point x="506" y="1368" type="line" smooth="yes"/>
      <point x="508" y="1372"/>
      <point x="509" y="1379"/>
      <point x="509" y="1386" type="curve" smooth="yes"/>
      <point x="509" y="1403"/>
      <point x="501" y="1424"/>
      <point x="472" y="1424" type="curve" smooth="yes"/>
      <point x="391" y="1424" type="line"/>
      <point x="359" y="1423"/>
      <point x="326" y="1415"/>
      <point x="318" y="1368" type="curve" smooth="yes"/>
      <point x="264" y="1067" type="line" smooth="yes"/>
      <point x="263" y="1064"/>
      <point x="263" y="1060"/>
      <point x="263" y="1055" type="curve" smooth="yes"/>
      <point x="263" y="1041"/>
      <point x="267" y="1024"/>
      <point x="287" y="1024" type="curve" smooth="yes"/>
    </contour>
    <contour>
      <point x="647" y="1024" type="line"/>
      <point x="682" y="1024" type="line" smooth="yes"/>
      <point x="711" y="1024"/>
      <point x="725" y="1035"/>
      <point x="738" y="1067" type="curve" smooth="yes"/>
      <point x="865" y="1368" type="line" smooth="yes"/>
      <point x="867" y="1372"/>
      <point x="868" y="1379"/>
      <point x="868" y="1386" type="curve" smooth="yes"/>
      <point x="868" y="1403"/>
      <point x="860" y="1424"/>
      <point x="831" y="1424" type="curve" smooth="yes"/>
      <point x="749" y="1424" type="line"/>
      <point x="717" y="1423"/>
      <point x="684" y="1415"/>
      <point x="676" y="1368" type="curve" smooth="yes"/>
      <point x="623" y="1067" type="line" smooth="yes"/>
      <point x="622" y="1064"/>
      <point x="622" y="1060"/>
      <point x="622" y="1055" type="curve" smooth="yes"/>
      <point x="622" y="1041"/>
      <point x="626" y="1024"/>
      <point x="646" y="1024" type="curve" smooth="yes"/>
    </contour>
  </outline>
</glyph>
<glyph name="Euro" format="1">
  <advance width="1377"/>
  <unicode hex="20AC"/>
  <outline>
    <contour>
      <point x="829" y="-22" type="curve" smooth="yes"/>
      <point x="1008" y="-22"/>
      <point x="1129" y="36"/>
      <point x="1205" y="86" type="curve" smooth="yes"/>
      <point x="1240" y="109"/>
      <point x="1253" y="135"/>
      <point x="1253" y="157" type="curve" smooth="yes"/>
      <point x="1253" y="189"/>
      <point x="1226" y="214"/>
      <point x="1193" y="214" type="curve" smooth="yes"/>
      <point x="1181" y="214"/>
      <point x="1169" y="210"/>
      <point x="1157" y="203" type="curve" smooth="yes"/>
      <point x="1067" y="149"/>
      <point x="982" y="107"/>
      <point x="848" y="107" type="curve" smooth="yes"/>
      <point x="559.544" y="107"/>
      <point x="419.406" y="287.612"/>
      <point x="370.698" y="505" type="curve"/>
      <point x="953" y="505" type="line" smooth="yes"/>
      <point x="986" y="505"/>
      <point x="1002" y="532"/>
      <point x="1002" y="560" type="curve" smooth="yes"/>
      <point x="1002" y="589"/>
      <point x="985" y="618"/>
      <point x="954" y="618" type="curve" smooth="yes"/>
      <point x="353.534" y="618" type="line"/>
      <point x="351.142" y="645.901"/>
      <point x="350" y="673.992"/>
      <point x="350" y="702" type="curve" smooth="yes"/>
      <point x="350" y="714.647"/>
      <point x="350.244" y="727.323"/>
      <point x="350.74" y="740" type="curve"/>
      <point x="953" y="740" type="line" smooth="yes"/>
      <point x="986" y="740"/>
      <point x="1002" y="768"/>
      <point x="1002" y="796" type="curve" smooth="yes"/>
      <point x="1002" y="825"/>
      <point x="985" y="854"/>
      <point x="954" y="854" type="curve" smooth="yes"/>
      <point x="362.34" y="854" type="line"/>
      <point x="402.289" y="1091.49"/>
      <point x="543.298" y="1301"/>
      <point x="844" y="1301" type="curve"/>
      <point x="1029" y="1301"/>
      <point x="1100" y="1252"/>
      <point x="1139" y="1231" type="curve" smooth="yes"/>
      <point x="1151" y="1225"/>
      <point x="1162" y="1222"/>
      <point x="1172" y="1222" type="curve" smooth="yes"/>
      <point x="1206" y="1222"/>
      <point x="1228" y="1252"/>
      <point x="1228" y="1283" type="curve" smooth="yes"/>
      <point x="1228" y="1302"/>
      <point x="1219" y="1322"/>
      <point x="1199" y="1334" type="curve" smooth="yes"/>
      <point x="1162" y="1357"/>
      <point x="1053" y="1430"/>
      <point x="841" y="1430" type="curve" smooth="yes"/>
      <point x="458.326" y="1430"/>
      <point x="242.79" y="1166.29"/>
      <point x="190.55" y="854" type="curve"/>
      <point x="54" y="854" type="line" smooth="yes"/>
      <point x="26" y="854"/>
      <point x="11" y="824"/>
      <point x="11" y="795" type="curve" smooth="yes"/>
      <point x="11" y="767"/>
      <point x="25" y="740"/>
      <point x="54" y="740" type="curve" smooth="yes"/>
      <point x="178.797" y="740" type="line"/>
      <point x="178.266" y="727.033"/>
      <point x="178" y="714.028"/>
      <point x="178" y="701" type="curve" smooth="yes"/>
      <point x="178" y="673.014"/>
      <point x="179.092" y="645.313"/>
      <point x="181.283" y="618" type="curve"/>
      <point x="54" y="618" type="line" smooth="yes"/>
      <point x="26" y="618"/>
      <point x="11" y="589"/>
      <point x="11" y="560" type="curve" smooth="yes"/>
      <point x="11" y="532"/>
      <point x="25" y="505"/>
      <point x="54" y="505" type="curve" smooth="yes"/>
      <point x="197.138" y="505" type="line"/>
      <point x="258.087" y="206.182"/>
      <point x="465.32" y="-22"/>
    </contour>
  </outline>
</glyph>
<glyph name="radical" format="1">
  <advance width="1275"/>
  <unicode hex="221A"/>
  <outline>
    <contour>
      <point x="178" y="553" type="curve" smooth="yes"/>
      <point x="134" y="553"/>
      <point x="94" y="516"/>
      <point x="94" y="473" type="curve" smooth="yes"/>
      <point x="94" y="463"/>
      <point x="95" y="454"/>
      <point x="101" y="446" type="curve"/>
      <point x="344" y="-43" type="line"/>
      <point x="363" y="-117"/>
      <point x="418" y="-139"/>
      <point x="473" y="-139" type="curve" smooth="yes"/>
      <point x="533" y="-139"/>
      <point x="582" y="-117"/>
      <point x="605" y="-47" type="curve"/>
      <point x="1157" y="1443" type="line" smooth="yes"/>
      <point x="1160" y="1453"/>
      <point x="1161" y="1459"/>
      <point x="1161" y="1467" type="curve" smooth="yes"/>
      <point x="1161" y="1507"/>
      <point x="1126" y="1535"/>
      <point x="1087" y="1535" type="curve" smooth="yes"/>
      <point x="1051" y="1535"/>
      <point x="1027" y="1514"/>
      <point x="1014" y="1481" type="curve" smooth="yes"/>
      <point x="474" y="41" type="line"/>
      <point x="471" y="40" type="line"/>
      <point x="247" y="506" type="line"/>
      <point x="234" y="536"/>
      <point x="207" y="553"/>
    </contour>
  </outline>
</glyph>
<glyph name="integral" format="1">
  <advance width="730"/>
  <unicode hex="222B"/>
  <outline>
    <contour>
      <point x="159" y="-329" type="curve" smooth="yes"/>
      <point x="307" y="-329"/>
      <point x="449" y="-239"/>
      <point x="449" y="187" type="curve" smooth="yes"/>
      <point x="449" y="517"/>
      <point x="422" y="901"/>
      <point x="422" y="1220" type="curve" smooth="yes"/>
      <point x="422" y="1516"/>
      <point x="474" y="1635"/>
      <point x="598" y="1635" type="curve" smooth="yes"/>
      <point x="649" y="1635"/>
      <point x="679" y="1662"/>
      <point x="679" y="1691" type="curve" smooth="yes"/>
      <point x="679" y="1719"/>
      <point x="651" y="1746"/>
      <point x="587" y="1746" type="curve" smooth="yes"/>
      <point x="400" y="1746"/>
      <point x="285" y="1603"/>
      <point x="285" y="1233" type="curve" smooth="yes"/>
      <point x="285" y="914"/>
      <point x="315" y="522"/>
      <point x="315" y="189" type="curve" smooth="yes"/>
      <point x="315" y="-168"/>
      <point x="221" y="-211"/>
      <point x="139" y="-211" type="curve" smooth="yes"/>
      <point x="88" y="-211"/>
      <point x="60" y="-239"/>
      <point x="60" y="-268" type="curve" smooth="yes"/>
      <point x="60" y="-298"/>
      <point x="91" y="-329"/>
    </contour>
  </outline>
</glyph>
<glyph name="caron.alt" format="1">
  <advance width="595"/>
  <outline>
    <contour>
      <point x="294" y="305" type="curve" smooth="yes"/>
      <point x="310" y="305" type="line"/>
      <point x="313" y="305" type="line" smooth="yes"/>
      <point x="340" y="305"/>
      <point x="355" y="317"/>
      <point x="366" y="348" type="curve" smooth="yes"/>
      <point x="492" y="733" type="line" smooth="yes"/>
      <point x="493" y="737"/>
      <point x="495" y="744"/>
      <point x="495" y="751" type="curve" smooth="yes"/>
      <point x="495" y="767"/>
      <point x="487" y="787"/>
      <point x="458" y="789" type="curve"/>
      <point x="406" y="789" type="line"/>
      <point x="374" y="788"/>
      <point x="341" y="780"/>
      <point x="333" y="733" type="curve" smooth="yes"/>
      <point x="270" y="348" type="line" smooth="yes"/>
      <point x="269" y="345"/>
      <point x="269" y="341"/>
      <point x="269" y="336" type="curve" smooth="yes"/>
      <point x="269" y="323"/>
      <point x="273" y="306"/>
    </contour>
  </outline>
</glyph>
<glyph name="slashbar" format="1">
  <advance width="600"/>
  <outline>
    <contour>
      <point x="83" y="641" type="curve" smooth="yes"/>
      <point x="668" y="833" type="line" smooth="yes"/>
      <point x="699" y="843"/>
      <point x="713" y="868"/>
      <point x="713" y="893" type="curve" smooth="yes"/>
      <point x="713" y="926"/>
      <point x="690" y="958"/>
      <point x="652" y="958" type="curve" smooth="yes"/>
      <point x="645" y="958"/>
      <point x="637" y="957"/>
      <point x="628" y="954" type="curve" smooth="yes"/>
      <point x="43" y="763" type="line" smooth="yes"/>
      <point x="9" y="752"/>
      <point x="-6" y="726"/>
      <point x="-6" y="700" type="curve" smooth="yes"/>
      <point x="-6" y="668"/>
      <point x="17" y="636"/>
      <point x="56" y="636" type="curve" smooth="yes"/>
      <point x="64" y="636"/>
      <point x="73" y="638"/>
    </contour>
  </outline>
</glyph>
